{"title":"Rush 1991 DVDRip Xvid BigPerm LKRG","uid":6102800,"size":1339196766,"categoryP":"video","categoryS":"movies","magnet":"?xt=urn:btih:fa7dee3860671111e2f158c57bccf05e2651edc6&amp;dn=Rush+1991+DVDRip+Xvid+BigPerm+LKRG&amp;tr=udp%3A%2F%2Ftracker.openbittorrent.com%3A80&amp;tr=udp%3A%2F%2Fopen.demonii.com%3A1337&amp;tr=udp%3A%2F%2Ftracker.coppersurfer.tk%3A6969&amp;tr=udp%3A%2F%2Fexodus.desync.com%3A6969","seeders":1,"leechers":0,"uploader":"neon","files":-1,"time":1295040601,"description":"Two small town Texas cops go undercover to catch a major drug dealer and are sucked into the drug culture, compromising their assignment.\n\n\nCast\n\nJason Patric ... Jim Raynor\nJennifer Jason Leigh ... Kristen Cates\nSam Elliott ... Dodd\nMax Perlich ... Walker\nGregg Allman ... Gaines\nTony Frank ... Nettle\nWilliam Sadler ... Monroe\nSpecial K. McCray ... Willie Red\nDennis Letts ... Senior District Attorney\nDennis Burkley ... Motorcycle Guy\nGlenn Wilson ... Motorcycle Guy\nJimmy Ray Pickens ... Man in Disco (as Jimmy Pickens)\nBarbara Lasater ... Yellow Rose Bartender\nToni Pilgreen ... Driller's Waitress\nMerrill Connally ... Defense Attorney\n\nGeneral Info\nGeneral\nComplete name : Rush 1991 DVDRip Xvid BigPerm LKRG\\R_LKRG.avi\nFormat : AVI\nFormat/Info : Audio Video Interleave\nFormat profile : OpenDML\nFile size : 1.25 GiB\nDuration : 1h 59mn\nOverall bit rate : 1 488 Kbps\n\nVideo\nID : 0\nFormat : MPEG-4 Visual\nFormat profile : Advanced Simple@L5\nFormat settings, BVOP : Yes\nFormat settings, QPel : No\nFormat settings, GMC : No warppoints\nFormat settings, Matrix : Default (H.263)\nCodec ID : XVID\nCodec ID/Hint : XviD\nDuration : 1h 59mn\nBit rate : 58.3 Kbps\nWidth : 704 pixels\nHeight : 396 pixels\nDisplay aspect ratio : 16:9\nFrame rate : 23.976 fps\nColor space : YUV\nChroma subsampling : 4:2:0\nBit depth : 8 bits\nScan type : Progressive\nCompression mode : Lossy\nBits/(Pixel*Frame) : 0.009\nStream size : 50.0 MiB (4%)\nWriting library : XviD 1.2.1 (UTC 2008-12-04)\n\nAudio\nID : 1\nFormat : AC-3\nFormat/Info : Audio Coding 3\nCodec ID : 2000\nDuration : 1h 59mn\nBit rate mode : Constant\nBit rate : 448 Kbps\nChannel(s) : 6 channels\nSampling rate : 48.0 KHz\nBit depth : 16 bits\nCompression mode : Lossy\nStream size : 384 MiB (30%)\nAlignment : Aligned on interleaves\nLanguage : English\n &lt;a href=&quot;\nhttp://www.videodetective.com/movie_trailer/RUSH/trailer/P00004059.htm&quot; rel=&quot;nofollow&quot; target=&quot;_NEW&quot;&gt;\nhttp://www.videodetective.com/movie_trailer/RUSH/trailer/P00004059.htm&lt;/a&gt;\n\n\nScreens\n &lt;a href=&quot;\nhttp://leetleech.org/images/18844326481942109217.png&quot; rel=&quot;nofollow&quot; target=&quot;_NEW&quot;&gt;\nhttp://leetleech.org/images/18844326481942109217.png&lt;/a&gt; &lt;a href=&quot;\nhttp://leetleech.org/images/58649396419342485861.png&quot; rel=&quot;nofollow&quot; target=&quot;_NEW&quot;&gt;\nhttp://leetleech.org/images/58649396419342485861.png&lt;/a&gt; &lt;a href=&quot;\nhttp://leetleech.org/images/27035191590602868516.png&quot; rel=&quot;nofollow&quot; target=&quot;_NEW&quot;&gt;\nhttp://leetleech.org/images/27035191590602868516.png&lt;/a&gt; &lt;a href=&quot;\nhttp://leetleech.org/images/80021702809525228346.png&quot; rel=&quot;nofollow&quot; target=&quot;_NEW&quot;&gt;\nhttp://leetleech.org/images/80021702809525228346.png&lt;/a&gt;\n  &lt;a href=&quot;\nhttp://www.imdb.com/title/tt0102820/&quot; rel=&quot;nofollow&quot; target=&quot;_NEW&quot;&gt;\nhttp://www.imdb.com/title/tt0102820/&lt;/a&gt; \n\nThanks to BigPerm","torrent":{"xt":"urn:btih:fa7dee3860671111e2f158c57bccf05e2651edc6","amp;dn":"Rush+1991+DVDRip+Xvid+BigPerm+LKRG","amp;tr":["udp%3A%2F%2Ftracker.openbittorrent.com%3A80","udp%3A%2F%2Fopen.demonii.com%3A1337","udp%3A%2F%2Ftracker.coppersurfer.tk%3A6969","udp%3A%2F%2Fexodus.desync.com%3A6969"],"infoHash":"fa7dee3860671111e2f158c57bccf05e2651edc6","infoHashBuffer":{"type":"Buffer","data":[250,125,238,56,96,103,17,17,226,241,88,197,123,204,240,94,38,81,237,198]},"announce":[],"urlList":[]}}